<svg width="310" height="407" viewBox="0 0 310 407" fill="none" xmlns="http://www.w3.org/2000/svg">
<!-- Gear in interior open space, center (155,160), 8 teeth -->
<path fill-rule="evenodd"
  d="M 138.93,93.2 L 147.07,75.55 L 162.93,75.55 L 171.07,93.2 L 171.07,93.2 L 189.3,86.48 L 200.52,97.7 L 193.8,115.93 L 193.8,115.93 L 211.45,124.07 L 211.45,139.93 L 193.8,148.07 L 193.8,148.07 L 200.52,166.3 L 189.3,177.52 L 171.07,170.8 L 171.07,170.8 L 162.93,188.45 L 147.07,188.45 L 138.93,170.8 L 138.93,170.8 L 120.7,177.52 L 109.48,166.3 L 116.2,148.07 L 116.2,148.07 L 98.55,139.93 L 98.55,124.07 L 116.2,115.93 L 116.2,115.93 L 109.48,97.7 L 120.7,86.48 L 138.93,93.2 Z
   M 171.0,132.0 L 170.45,136.14 L 168.86,140.0 L 166.31,143.31 L 163.0,145.86 L 159.14,147.45 L 155.0,148.0 L 150.86,147.45 L 147.0,145.86 L 143.69,143.31 L 141.14,140.0 L 139.55,136.14 L 139.0,132.0 L 139.55,127.86 L 141.14,124.0 L 143.69,120.69 L 147.0,118.14 L 150.86,116.55 L 155.0,116.0 L 159.14,116.55 L 163.0,118.14 L 166.31,120.69 L 168.86,124.0 L 170.45,127.86 Z"
  fill="#D43A4A"/>
<!-- Original Y mark paths -->
<path d="M121.385 325.458C118.985 372.258 120.385 398.625 121.385 405.958H97.8853C105.885 242.958 43.9689 233.723 16.9689 203.723C-4.63113 179.723 -0.448046 140.458 4.38529 123.458C65.9853 133.058 114.052 181.458 130.385 204.458L115.385 222.958C90.9853 185.358 44.2186 160.958 23.8853 153.458C22.8853 168.458 35.4688 190.958 60.9688 204.458C81.3689 215.258 97.8853 250.723 107.969 272.958C141.469 183.223 256.636 140.39 306.969 127.723C311.469 272.958 212.885 296.625 161.885 293.458L172.885 272.958C260.885 273.458 294.469 153.723 281.469 157.723C268.469 161.723 228.385 179.458 200.385 198.458C172.385 217.458 124.385 266.958 121.385 325.458Z" fill="#D43A4A"/>
<path d="M20.4688 100.223L44.3853 113.958C41.3853 104.458 79.8853 28.5327 161.885 27.9584C227.485 27.499 266.552 81.767 277.885 108.958L299.885 98.9584C285.385 60.9584 241.969 -3.77714 153.469 0.722862C82.6688 4.32286 31.4688 68.2228 20.4688 100.223Z" fill="#D43A4A"/>
<path d="M121.385 325.458C118.985 372.258 120.385 398.625 121.385 405.958H97.8853C105.885 242.958 43.9689 233.723 16.9689 203.723C-4.63113 179.723 -0.448046 140.458 4.38529 123.458C65.9853 133.058 114.052 181.458 130.385 204.458L115.385 222.958C90.9853 185.358 44.2186 160.958 23.8853 153.458C22.8853 168.458 35.4688 190.958 60.9688 204.458C81.3689 215.258 97.8853 250.723 107.969 272.958C141.469 183.223 256.636 140.39 306.969 127.723C311.469 272.958 212.885 296.625 161.885 293.458L172.885 272.958C260.885 273.458 294.469 153.723 281.469 157.723C268.469 161.723 228.385 179.458 200.385 198.458C172.385 217.458 124.385 266.958 121.385 325.458Z" stroke="#D43A4A"/>
<path d="M20.4688 100.223L44.3853 113.958C41.3853 104.458 79.8853 28.5327 161.885 27.9584C227.485 27.499 266.552 81.767 277.885 108.958L299.885 98.9584C285.385 60.9584 241.969 -3.77714 153.469 0.722862C82.6688 4.32286 31.4688 68.2228 20.4688 100.223Z" stroke="#D43A4A"/>
</svg>
